<?xml version="1.0" standalone="no"?>
<!DOCTYPE svg PUBLIC "-//W3C//DTD SVG 20010904//EN"
 "http://www.w3.org/TR/2001/REC-SVG-20010904/DTD/svg10.dtd">
<svg version="1.0" xmlns="http://www.w3.org/2000/svg"
 width="512.000000pt" height="512.000000pt" viewBox="0 0 512.000000 512.000000"
 preserveAspectRatio="xMidYMid meet">
<metadata>
Created by potrace 1.16, written by Peter Selinger 2001-2019
</metadata>
<g transform="translate(0.000000,512.000000) scale(0.100000,-0.100000)"
fill="#000000" stroke="none">
<path d="M2970 3866 c-25 -7 -128 -40 -230 -74 -327 -108 -308 -103 -354 -80
-34 17 -53 20 -121 15 -89 -6 -224 -45 -276 -80 -24 -16 -35 -31 -37 -54 -3
-29 -9 -33 -93 -69 -50 -20 -104 -50 -121 -66 -28 -26 -30 -32 -26 -82 5 -57
69 -197 113 -248 39 -45 85 -68 136 -68 43 0 47 -2 54 -27 3 -16 13 -35 21
-44 13 -15 8 -23 -49 -80 -72 -73 -95 -116 -104 -192 -4 -39 -15 -65 -43 -102
-56 -75 -58 -85 -8 -37 l44 43 12 -38 c11 -35 10 -40 -17 -68 -57 -61 -131
-169 -131 -191 0 -24 -17 -45 -56 -71 -25 -16 -78 -113 -89 -162 -3 -16 1 -47
9 -71 15 -43 15 -44 -15 -82 -85 -107 -233 -201 -414 -262 -82 -28 -92 -35
-127 -81 -46 -61 -78 -141 -78 -198 0 -23 -7 -71 -16 -107 -42 -161 42 -284
220 -325 157 -37 407 -30 581 16 246 64 493 198 935 509 124 86 244 167 267
179 24 12 107 44 185 72 294 104 412 149 378 143 -41 -7 -315 -86 -379 -109
-24 -8 -46 -13 -48 -11 -9 8 121 113 277 224 332 236 573 446 586 510 4 18 26
42 67 72 120 87 262 238 243 257 -2 3 -11 -8 -19 -24 -19 -36 -134 -147 -216
-206 l-63 -47 -64 132 c-86 179 -87 180 -129 204 -30 17 -45 38 -75 102 -21
44 -56 107 -79 141 -43 62 -244 318 -266 336 -40 34 -311 363 -307 373 4 13
-15 43 -27 41 -3 0 -26 -6 -51 -13z m92 -118 c30 -35 72 -85 93 -112 l40 -49
-55 28 c-76 40 -191 44 -350 15 -159 -29 -312 -51 -324 -47 -6 3 12 8 39 12
28 3 115 20 195 35 80 16 197 34 260 40 63 7 117 14 119 16 3 3 -19 28 -47 57
-54 55 -61 67 -38 67 7 0 38 -28 68 -62z m-146 43 c-10 -16 -151 -80 -245
-111 -85 -27 -96 -29 -110 -15 -14 13 -13 15 6 15 25 0 200 60 275 94 56 26
83 32 74 17z m-389 -157 c2 -7 -13 -15 -34 -19 -78 -14 -112 -43 -123 -105
-10 -56 4 -188 22 -206 10 -11 46 -17 119 -20 57 -3 106 -7 108 -10 20 -20
-128 -32 -182 -15 -57 19 -77 50 -89 135 -19 129 13 213 92 245 31 13 82 10
87 -5z m614 -31 c48 -22 78 -45 115 -87 70 -81 71 -92 20 -191 -40 -78 -139
-216 -154 -214 -4 0 -21 19 -37 42 -35 48 -82 82 -134 98 -20 5 -100 18 -178
27 l-142 16 -7 56 c-3 30 -12 93 -19 140 -7 50 -8 87 -3 91 5 3 66 16 136 28
70 12 134 24 142 26 8 2 56 3 105 1 76 -2 100 -7 156 -33z m-991 -2 c-47 -15
-100 -35 -117 -45 -18 -9 -33 -12 -33 -7 0 6 10 16 23 22 36 20 160 58 187 58
14 0 -13 -12 -60 -28z m434 -38 c9 -30 37 -265 33 -270 -8 -7 -204 9 -219 18
-14 9 -25 170 -14 214 7 26 21 32 109 45 80 12 85 11 91 -7z m-294 -57 l0 -43
-72 -18 c-79 -19 -191 -65 -202 -84 -4 -6 19 2 51 18 52 26 118 48 194 65 25
5 27 3 33 -37 3 -23 8 -51 12 -63 5 -20 4 -21 -48 -11 -66 12 -152 -4 -202
-38 l-35 -24 -11 54 c-18 85 -11 116 30 139 34 20 214 85 238 86 8 0 12 -15
12 -44z m-326 -8 c3 -13 6 -54 6 -91 0 -74 24 -195 47 -240 22 -43 10 -42 -29
1 -45 50 -98 185 -98 249 0 37 5 53 27 75 32 34 39 35 47 6z m1372 -147 c-18
-70 -102 -261 -180 -406 l-53 -100 -114 -3 c-63 -2 -155 0 -205 3 l-91 7 16
44 16 44 55 0 c118 1 262 40 315 85 13 11 6 9 -20 -5 -22 -12 -72 -30 -112
-40 -78 -21 -262 -37 -228 -21 11 5 45 10 75 10 150 3 287 58 372 150 56 60
126 183 149 259 19 64 23 43 5 -27z m31 -3 c-3 -8 -6 -5 -6 6 -1 11 2 17 5 13
3 -3 4 -12 1 -19z m126 -118 c74 -92 153 -213 168 -258 11 -32 9 -36 -27 -73
-67 -69 -94 -62 -94 23 0 59 -33 105 -68 94 -50 -16 -134 -177 -161 -311 -11
-53 -22 -99 -25 -102 -12 -12 -28 120 -24 200 2 50 1 81 -3 71 -4 -10 -8 -32
-8 -49 -1 -16 -6 -37 -12 -45 -16 -23 -1 63 23 129 11 31 23 79 28 106 4 28
30 112 56 188 55 159 42 156 147 27z m-1654 63 c10 -21 40 -66 65 -101 25 -34
46 -64 46 -66 0 -3 -15 -1 -32 4 -39 11 -90 66 -124 133 -26 51 -25 67 6 67
13 0 27 -14 39 -37z m951 -28 c187 -21 252 -50 298 -133 31 -56 12 -61 -26 -7
-55 79 -106 100 -277 116 -136 13 -155 17 -155 29 0 13 12 13 160 -5z m-462
-29 c3 -4 -10 -22 -28 -41 -32 -33 -35 -34 -52 -18 -17 15 -20 15 -42 -6 -14
-13 -30 -36 -36 -52 -12 -27 -14 -28 -39 -15 -14 8 -42 30 -61 50 -31 33 -33
37 -18 52 28 28 107 44 191 40 43 -2 81 -7 85 -10z m267 -104 c10 -34 22 -65
28 -69 7 -4 8 0 3 13 -7 16 -36 114 -36 122 0 1 4 2 9 2 5 0 12 -17 16 -37 4
-21 20 -69 37 -108 36 -86 39 -147 8 -180 -13 -13 -57 -40 -99 -60 -42 -20
-86 -46 -98 -57 -31 -29 -56 -101 -83 -233 -22 -113 -55 -186 -90 -205 -28
-15 -25 2 6 31 37 34 49 63 68 154 45 222 72 267 192 324 81 38 114 66 114 95
-1 16 -4 14 -15 -11 -11 -25 -30 -39 -98 -71 -130 -62 -149 -94 -207 -349 -17
-71 -28 -99 -54 -129 l-33 -39 -40 36 c-22 20 -57 42 -77 49 -21 7 -35 17 -33
24 40 94 52 116 61 113 6 -2 12 -33 14 -70 2 -37 7 -67 12 -67 14 0 30 35 30
63 0 17 7 26 21 30 19 5 21 11 15 38 -3 18 -15 43 -27 55 -18 19 -19 26 -8 67
16 65 30 73 67 42 42 -35 62 -33 62 8 0 18 -7 42 -15 55 -19 25 -12 43 34 86
37 35 158 78 183 65 25 -13 45 -11 52 6 6 17 -32 64 -122 150 -48 46 -92 101
-92 116 0 3 40 6 88 5 l89 -1 18 -63z m706 31 c-12 -20 -14 -14 -5 12 4 9 9
14 11 11 3 -2 0 -13 -6 -23z m-942 -5 c-2 -2 -17 -14 -34 -28 l-30 -25 24 28
c14 15 29 27 34 27 6 0 8 -1 6 -2z m148 -145 c-3 -3 -181 48 -187 54 -3 3 10
18 28 34 l33 29 64 -57 c35 -31 63 -58 62 -60z m759 70 c-8 -15 -15 -25 -16
-21 0 12 23 58 27 54 3 -2 -2 -17 -11 -33z m-1146 -23 c8 -5 11 -12 7 -16 -4
-4 -15 0 -24 9 -18 18 -8 23 17 7z m830 -14 c9 -12 5 -17 -27 -25 -33 -8 -179
-31 -202 -31 -8 0 -31 44 -31 60 0 6 52 10 124 10 95 0 126 -3 136 -14z m286
-33 c-8 -15 -15 -25 -16 -21 0 12 23 58 27 54 3 -2 -2 -17 -11 -33z m-956 11
c132 -30 203 -55 192 -66 -6 -6 -73 -13 -151 -16 -116 -4 -141 -2 -141 9 0 24
21 89 28 89 4 0 36 -7 72 -16z m936 -130 c-19 -38 -35 -66 -36 -63 0 12 62
140 67 136 2 -3 -12 -36 -31 -73z m-1136 -4 c0 -46 -2 -50 -35 -66 -20 -9 -56
-40 -80 -68 -38 -43 -45 -47 -45 -28 0 39 40 104 98 159 30 29 56 53 58 53 2
0 4 -22 4 -50z m1123 35 c-3 -9 -8 -14 -10 -11 -3 3 -2 9 2 15 9 16 15 13 8
-4z m-833 -35 c-14 -11 -36 -23 -50 -26 -14 -3 -51 -12 -83 -20 -33 -9 -61
-13 -64 -10 -9 8 74 46 135 60 80 20 92 19 62 -4z m1385 -40 c12 0 26 -5 33
-12 26 -26 12 -63 -55 -143 -104 -125 -148 -188 -167 -241 -26 -70 -54 -95
-185 -168 -64 -36 -149 -88 -190 -117 -104 -72 -356 -319 -327 -319 3 0 72 55
153 121 183 150 238 189 381 269 146 83 186 117 207 179 9 28 33 76 54 108 36
55 157 205 170 211 10 3 91 -175 91 -199 0 -12 -9 -37 -21 -55 -36 -59 -333
-303 -559 -459 -47 -32 -120 -85 -163 -118 -43 -32 -79 -57 -81 -55 -1 1 -7
15 -14 31 -6 15 -18 27 -27 27 -8 0 -50 -28 -93 -62 -43 -35 -126 -98 -185
-140 -75 -55 -107 -84 -107 -98 0 -24 22 -26 40 -5 7 8 60 50 119 92 58 42
132 98 163 125 55 47 57 48 68 28 6 -12 10 -25 8 -30 -4 -11 -381 -276 -599
-420 -199 -132 -312 -191 -414 -215 -79 -19 -600 -129 -715 -150 -141 -27
-233 -17 -290 32 -26 21 -60 71 -60 86 0 2 24 -3 53 -11 92 -26 285 -27 426
-3 69 12 127 23 130 26 2 3 0 9 -5 14 -5 6 -43 4 -94 -5 -196 -33 -441 -28
-509 12 -15 9 -18 13 -6 9 94 -30 225 -28 400 6 529 105 930 285 1250 562 158
137 216 210 365 467 93 160 101 172 177 252 46 48 66 63 70 52 3 -8 3 -22 1
-32 -3 -9 -76 -125 -164 -257 -172 -260 -244 -345 -414 -487 -52 -44 -144
-112 -205 -152 -60 -40 -166 -110 -235 -155 -70 -46 -216 -128 -330 -184 -202
-99 -236 -125 -123 -92 103 30 271 125 548 310 292 195 423 294 552 418 102
98 138 145 255 332 222 353 235 370 380 496 73 64 147 128 163 142 l30 25 15
-24 c8 -13 24 -24 35 -24z m-601 -32 c-53 -103 -315 -453 -363 -485 -96 -65
-219 14 -237 153 -8 61 5 52 17 -11 15 -80 71 -135 137 -135 41 0 112 49 163
113 145 181 269 353 283 391 3 10 9 16 12 13 3 -3 -2 -20 -12 -39z m-155 -18
c83 0 84 0 66 -20 -26 -29 -171 -132 -235 -168 -81 -45 -114 -49 -144 -19 -14
14 -32 50 -41 81 -9 30 -20 58 -25 61 -15 9 -69 -75 -87 -134 -24 -80 -22
-204 4 -261 39 -88 114 -140 202 -140 67 0 103 16 177 78 84 70 145 155 223
309 l66 133 16 -78 17 -77 -77 -80 c-49 -51 -107 -129 -161 -215 -106 -170
-139 -215 -234 -318 -194 -210 -377 -347 -612 -457 -318 -150 -711 -261 -969
-272 -174 -8 -221 11 -181 72 15 23 20 24 138 23 232 -1 450 58 842 229 193
83 283 130 405 210 54 35 95 56 111 55 l25 -2 -25 17 c-42 30 -190 89 -320
128 -189 57 -235 83 -246 142 -9 49 7 60 49 34 19 -11 39 -21 46 -21 22 0 11
46 -20 83 -25 30 -29 41 -19 52 6 8 19 11 28 7 14 -5 12 -7 -8 -13 -24 -7 -24
-7 -2 -8 12 -1 45 -12 72 -26 45 -23 50 -24 50 -8 0 10 -18 47 -39 83 -22 36
-37 69 -34 74 6 8 48 -33 96 -93 20 -25 35 -24 51 2 9 14 6 27 -12 57 -31 54
-4 41 32 -16 16 -25 31 -43 34 -40 3 3 38 -26 78 -64 41 -38 109 -95 151 -126
43 -31 95 -70 116 -86 36 -28 57 -30 57 -4 0 8 -44 44 -97 82 -109 77 -232
179 -240 200 -2 7 9 33 27 58 23 34 41 85 70 202 46 182 61 208 152 254 l63
31 140 -6 c77 -3 178 -5 224 -5z m-793 -77 c-4 -9 -10 -36 -13 -60 -3 -24 -10
-43 -15 -43 -9 0 -5 45 8 88 4 11 1 10 -6 -3 -19 -31 -41 -45 -73 -45 -42 0
-30 21 33 53 62 31 75 33 66 10z m1041 -30 c-3 -10 -5 -2 -5 17 0 19 2 27 5
18 2 -10 2 -26 0 -35z m-1243 -19 c25 -10 19 -22 -23 -44 -22 -11 -46 -29 -54
-40 -13 -18 -15 -19 -21 -5 -13 34 -5 52 32 73 41 24 44 25 66 16z m944 -65
c-56 -63 -131 -126 -185 -153 -72 -36 -151 -10 -171 57 -16 52 -22 108 -11
101 6 -3 10 0 8 7 -7 52 16 52 25 0 8 -53 48 -99 92 -107 28 -5 49 0 107 29
40 20 97 56 127 81 30 25 56 45 58 45 2 1 -21 -26 -50 -60z m309 29 c-3 -7 -5
-2 -5 12 0 14 2 19 5 13 2 -7 2 -19 0 -25z m10 -40 c-3 -8 -6 -5 -6 6 -1 11 2
17 5 13 3 -3 4 -12 1 -19z m-700 -45 c-3 -10 -5 -4 -5 12 0 17 2 24 5 18 2 -7
2 -21 0 -30z m-430 -5 c-3 -7 -14 -38 -23 -68 -10 -30 -19 -56 -20 -58 -1 -2
-37 13 -80 32 -42 20 -74 39 -71 42 10 10 160 63 180 63 11 1 17 -4 14 -11z
m-203 -114 c18 -7 22 -24 5 -24 -6 0 -38 -13 -70 -30 -33 -16 -59 -26 -59 -22
1 16 27 40 65 60 48 25 40 23 59 16z m1036 -37 c0 -2 -10 -12 -22 -23 l-23
-19 19 23 c18 21 26 27 26 19z m-970 -80 c0 -7 -13 -26 -30 -42 l-30 -28 -40
18 c-45 20 -43 28 15 49 51 19 85 20 85 3z m-155 -86 c27 -14 28 -16 9 -19
-18 -3 -94 33 -94 44 0 8 54 -8 85 -25z m-64 -94 c88 5 99 4 99 -10 0 -15 -15
-17 -120 -17 -66 0 -120 3 -120 7 0 3 8 15 18 26 14 16 17 17 20 4 3 -14 17
-15 103 -10z m147 -129 c18 -15 61 -41 95 -56 38 -18 72 -42 88 -63 32 -41 43
-75 29 -84 -5 -3 -56 -9 -113 -12 -89 -5 -121 -12 -252 -58 -83 -29 -196 -63
-250 -75 -120 -25 -355 -46 -324 -27 2 1 60 30 129 64 145 72 198 112 315 245
48 55 95 98 108 101 12 2 49 2 82 -1 47 -4 67 -11 93 -34z m233 -115 c24 -42
30 -79 18 -107 -13 -27 -5 -25 -184 -45 -49 -5 -126 -21 -170 -35 -43 -14 -81
-24 -83 -22 -2 2 40 18 94 36 71 24 126 35 203 40 90 7 108 11 122 29 20 24
14 59 -16 105 -10 14 -13 26 -8 26 5 0 16 -12 24 -27z m132 -23 c15 -7 27 -16
27 -20 0 -4 -13 -25 -28 -46 -46 -64 -98 -93 -203 -114 -52 -10 -148 -37 -214
-60 -227 -78 -495 -130 -672 -130 -82 0 -94 -2 -113 -22 -22 -24 -40 -77 -40
-120 0 -30 -9 -35 -28 -16 -28 28 -6 127 43 198 l27 40 72 -4 c57 -3 62 -2 26
4 -28 5 -8 6 56 3 110 -5 288 15 244 28 -14 4 -18 7 -9 8 9 1 32 3 50 6 30 4
31 4 9 -5 -44 -17 36 -2 119 22 58 17 70 24 55 30 -15 6 -13 7 7 3 14 -2 61 7
105 21 45 14 133 31 207 38 155 16 172 27 163 95 -3 25 -13 55 -21 67 l-15 23
53 -18 c28 -10 64 -24 80 -31z m-643 -220 c-8 -5 -22 -9 -30 -9 -10 0 -8 3 5
9 27 12 43 12 25 0z m-53 -16 c-3 -3 -12 -4 -19 -1 -8 3 -5 6 6 6 11 1 17 -2
13 -5z m-144 -31 c-7 -2 -21 -2 -30 0 -10 3 -4 5 12 5 17 0 24 -2 18 -5z m-75
-10 c-10 -2 -28 -2 -40 0 -13 2 -5 4 17 4 22 1 32 -1 23 -4z"/>
<path d="M2513 3263 c9 -2 25 -2 35 0 9 3 1 5 -18 5 -19 0 -27 -2 -17 -5z"/>
<path d="M2962 3612 c-12 -2 -30 -16 -40 -30 -9 -15 -23 -32 -31 -38 -7 -6
-12 -17 -9 -25 5 -15 -31 -38 -75 -48 -44 -10 -34 -24 35 -52 34 -14 84 -35
110 -48 84 -39 166 -8 241 90 33 44 33 49 5 49 -13 1 -39 14 -58 30 -19 17
-39 30 -44 30 -5 0 -17 7 -27 16 -20 18 -74 31 -107 26z m69 -79 c13 -16 12
-17 -3 -4 -17 13 -22 21 -14 21 2 0 10 -8 17 -17z m-17 -22 c4 -5 -3 -7 -14
-4 -11 3 -28 -1 -38 -8 -15 -13 -16 -12 -3 4 14 18 46 23 55 8z m-7 -57 c-3
-3 -12 -4 -19 -1 -8 3 -5 6 6 6 11 1 17 -2 13 -5z m-52 -24 c10 -11 16 -20 13
-20 -3 0 -13 9 -23 20 -10 11 -16 20 -13 20 3 0 13 -9 23 -20z m-40 -10 c3 -6
-1 -7 -9 -4 -18 7 -21 14 -7 14 6 0 13 -4 16 -10z m152 -26 c-3 -3 -12 -4 -19
-1 -8 3 -5 6 6 6 11 1 17 -2 13 -5z"/>
<path d="M2434 3505 c-9 -23 3 -45 25 -45 20 0 37 32 26 50 -9 15 -45 12 -51
-5z"/>
<path d="M2414 3366 c-7 -30 1 -46 26 -46 21 0 33 25 25 51 -9 28 -43 24 -51
-5z"/>
<path d="M3402 3300 c0 -14 2 -19 5 -12 2 6 2 18 0 25 -3 6 -5 1 -5 -13z"/>
<path d="M3391 3254 c0 -11 3 -14 6 -6 3 7 2 16 -1 19 -3 4 -6 -2 -5 -13z"/>
<path d="M3381 3214 c0 -11 3 -14 6 -6 3 7 2 16 -1 19 -3 4 -6 -2 -5 -13z"/>
<path d="M3282 2935 c-17 -37 -14 -45 4 -12 9 16 14 31 11 33 -2 2 -9 -7 -15
-21z"/>
<path d="M2630 3041 c0 -6 4 -13 10 -16 6 -3 7 1 4 9 -7 18 -14 21 -14 7z"/>
<path d="M2656 2985 c8 -37 14 -45 14 -19 0 10 -5 26 -10 34 -8 11 -9 7 -4
-15z"/>
<path d="M3469 2579 l-134 -131 138 127 c125 117 144 135 134 135 -2 0 -64
-59 -138 -131z"/>
<path d="M2364 1418 c-112 -71 -216 -123 -338 -169 -134 -50 -144 -55 -133
-66 13 -13 178 36 272 81 127 60 265 144 265 161 0 26 -17 24 -66 -7z"/>
<path d="M2268 2244 c9 -17 5 -29 -22 -70 -45 -67 -135 -154 -158 -154 -29 0
-79 24 -116 54 -20 18 -30 22 -26 12 11 -30 91 -66 286 -132 106 -36 216 -78
245 -94 29 -15 55 -25 58 -20 7 11 -122 66 -280 119 -77 25 -141 47 -143 47
-2 1 22 26 53 55 31 29 70 75 87 101 17 26 34 48 38 48 3 0 24 -18 45 -41 22
-22 92 -81 157 -130 64 -49 118 -94 120 -101 3 -9 6 -9 11 -1 5 7 -39 47 -114
104 -67 52 -151 122 -187 158 -36 36 -60 56 -54 45z"/>
<path d="M1775 1940 c3 -5 8 -10 11 -10 2 0 4 5 4 10 0 6 -5 10 -11 10 -5 0
-7 -4 -4 -10z"/>
<path d="M1855 1920 c-3 -5 -1 -10 4 -10 6 0 11 5 11 10 0 6 -2 10 -4 10 -3 0
-8 -4 -11 -10z"/>
<path d="M1940 1920 c0 -5 5 -10 10 -10 6 0 10 5 10 10 0 6 -4 10 -10 10 -5 0
-10 -4 -10 -10z"/>
<path d="M1790 1880 c0 -5 5 -10 10 -10 6 0 10 5 10 10 0 6 -4 10 -10 10 -5 0
-10 -4 -10 -10z"/>
<path d="M1650 1830 c0 -5 5 -10 11 -10 5 0 7 5 4 10 -3 6 -8 10 -11 10 -2 0
-4 -4 -4 -10z"/>
<path d="M1580 1799 c0 -5 5 -7 10 -4 6 3 10 8 10 11 0 2 -4 4 -10 4 -5 0 -10
-5 -10 -11z"/>
<path d="M1710 1800 c0 -5 5 -10 10 -10 6 0 10 5 10 10 0 6 -4 10 -10 10 -5 0
-10 -4 -10 -10z"/>
<path d="M1525 1730 c4 -6 11 -8 16 -5 14 9 11 15 -7 15 -8 0 -12 -5 -9 -10z"/>
<path d="M3614 3645 c-4 -9 -2 -21 4 -27 15 -15 44 -1 40 19 -4 23 -36 29 -44
8z"/>
<path d="M3377 3634 c-15 -15 -7 -45 11 -42 9 2 17 12 17 22 0 20 -16 31 -28
20z"/>
<path d="M4143 3580 c77 -118 97 -236 57 -342 -34 -91 -109 -150 -260 -204
-74 -27 -29 -22 65 7 70 21 144 71 181 120 45 61 57 99 58 189 1 74 -3 92 -27
142 -16 32 -48 79 -73 105 l-44 48 43 -65z"/>
<path d="M3730 3440 c0 -5 5 -10 10 -10 6 0 10 5 10 10 0 6 -4 10 -10 10 -5 0
-10 -4 -10 -10z"/>
<path d="M1733 3116 c3 -8 9 -30 12 -48 5 -29 2 -36 -23 -52 -62 -41 -102
-137 -102 -246 0 -162 -88 -365 -313 -730 -50 -79 -98 -168 -109 -197 -19 -56
-24 -118 -9 -127 10 -7 165 102 206 144 42 44 24 37 -35 -14 -29 -25 -79 -63
-111 -86 l-59 -41 0 25 c0 46 35 119 116 246 118 184 191 311 250 435 67 141
82 193 99 338 17 135 38 185 91 213 33 18 36 18 87 0 28 -10 59 -21 67 -24 8
-2 -12 16 -45 41 -33 25 -73 66 -89 91 -28 45 -43 60 -33 32z"/>
<path d="M1474 2686 c-9 -23 7 -38 26 -26 13 8 13 11 -2 26 -16 17 -18 17 -24
0z"/>
<path d="M1710 2520 c0 -5 5 -10 10 -10 6 0 10 5 10 10 0 6 -4 10 -10 10 -5 0
-10 -4 -10 -10z"/>
<path d="M1450 2006 c0 -9 7 -16 16 -16 17 0 14 22 -4 28 -7 2 -12 -3 -12 -12z"/>
<path d="M3760 1764 c0 -9 5 -14 12 -12 18 6 21 28 4 28 -9 0 -16 -7 -16 -16z"/>
<path d="M1711 720 c-147 -21 -116 -39 89 -53 159 -10 551 2 593 18 25 10 21
22 -10 30 -44 10 -601 15 -672 5z"/>
</g>
</svg>